<svg viewBox="0 0 916 903" xmlns="http://www.w3.org/2000/svg" xmlns:xlink="http://www.w3.org/1999/xlink" xml:space="preserve" overflow="visible"><defs><clipPath id="clip0"><rect x="2397" y="396" width="585" height="587"/></clipPath></defs><g transform="translate(-2232 -343)"><g><path d="M2238 496.503C2238 416.696 2302.7 352 2382.5 352L2960.5 352C3040.3 352 3105 416.696 3105 496.503L3105 1093.5C3105 1173.3 3040.3 1238 2960.5 1238L2382.5 1238C2302.7 1238 2238 1173.3 2238 1093.5Z" stroke="#264D7F" stroke-width="10.3125" stroke-linecap="butt" stroke-linejoin="miter" stroke-miterlimit="8" stroke-opacity="1" fill="#264D7F" fill-rule="evenodd" fill-opacity="1"/><rect x="2262.5" y="864.5" width="832" height="300" stroke="#264D7F" stroke-width="3.4375" stroke-linecap="butt" stroke-linejoin="round" stroke-miterlimit="10" stroke-opacity="1" fill="#264D7F" fill-opacity="1"/><text fill="#FFFFFF" fill-opacity="1" font-family="Lexend Medium,Lexend Medium_MSFontService,sans-serif" font-style="normal" font-variant="normal" font-weight="500" font-stretch="normal" font-size="110" text-anchor="start" direction="ltr" writing-mode="lr-tb" unicode-bidi="normal" text-decoration="none" transform="matrix(1 0 0 1 2430.24 987)">Klassen </text><text fill="#FFFFFF" fill-opacity="1" font-family="Lexend Medium,Lexend Medium_MSFontService,sans-serif" font-style="normal" font-variant="normal" font-weight="500" font-stretch="normal" font-size="110" text-anchor="start" direction="ltr" writing-mode="lr-tb" unicode-bidi="normal" text-decoration="none" transform="matrix(1 0 0 1 2880.55 987)">-</text><text fill="#FFFFFF" fill-opacity="1" font-family="Lexend Medium,Lexend Medium_MSFontService,sans-serif" font-style="normal" font-variant="normal" font-weight="500" font-stretch="normal" font-size="110" text-anchor="start" direction="ltr" writing-mode="lr-tb" unicode-bidi="normal" text-decoration="none" transform="matrix(1 0 0 1 2308.21 1119)">wiederholung</text><text fill="#FFFFFF" fill-opacity="1" font-family="Lexend Medium,Lexend Medium_MSFontService,sans-serif" font-style="normal" font-variant="normal" font-weight="500" font-stretch="normal" font-size="110" text-anchor="start" direction="ltr" writing-mode="lr-tb" unicode-bidi="normal" text-decoration="none" transform="matrix(1 0 0 1 3047.84 1119)"> </text><g clip-path="url(#clip0)"><g><g><path d="M85.6065 150.882 121.97 114.517 90.3471 82.8941 0 173.242 90.3471 263.589 121.97 231.967 85.6065 195.604 508.655 195.604 508.655 292.501 553.377 292.501 553.377 150.882Z" stroke="#264D7F" stroke-width="1.14273" stroke-linecap="butt" stroke-linejoin="miter" stroke-miterlimit="4" stroke-opacity="1" fill="#E6702E" fill-rule="nonzero" fill-opacity="1" transform="matrix(1 0 0 1.00171 2397 396)"/><path d="M494.652 321.411 463.029 353.033 499.394 389.398 76.3448 389.398 76.3448 292.501 31.6231 292.501 31.6231 434.12 499.394 434.12 463.029 470.483 494.652 502.106 585 411.759Z" stroke="#264D7F" stroke-width="1.14273" stroke-linecap="butt" stroke-linejoin="miter" stroke-miterlimit="4" stroke-opacity="1" fill="#E6702E" fill-rule="nonzero" fill-opacity="1" transform="matrix(1 0 0 1.00171 2397 396)"/><path d="M494.652 321.411 463.029 353.033 499.394 389.398 292.5 389.398 292.5 434.12 499.394 434.12 463.029 470.483 494.652 502.106 585 411.759Z" stroke="#264D7F" stroke-width="1.14273" stroke-linecap="butt" stroke-linejoin="miter" stroke-miterlimit="4" stroke-opacity="1" fill="#E6702E" fill-rule="nonzero" fill-opacity="1" transform="matrix(1 0 0 1.00171 2397 396)"/><path d="M292.5 150.882 292.5 195.604 508.655 195.604 508.655 292.501 553.377 292.501 553.377 150.882Z" stroke="#264D7F" stroke-width="1.14273" stroke-linecap="butt" stroke-linejoin="miter" stroke-miterlimit="4" stroke-opacity="1" fill="#E6702E" fill-rule="nonzero" fill-opacity="1" transform="matrix(1 0 0 1.00171 2397 396)"/><path d="M508.651 150.877 553.372 150.877 553.372 292.497 508.651 292.497Z" stroke="#264D7F" stroke-width="1.14273" stroke-linecap="butt" stroke-linejoin="miter" stroke-miterlimit="4" stroke-opacity="1" fill="#E6702E" fill-rule="nonzero" fill-opacity="1" transform="matrix(1 0 0 1.00171 2397 396)"/><path d="M31.6186 291.602 76.3402 291.602 76.3402 433.221 31.6186 433.221Z" stroke="#264D7F" stroke-width="1.14273" stroke-linecap="butt" stroke-linejoin="miter" stroke-miterlimit="4" stroke-opacity="1" fill="#E6702E" fill-rule="nonzero" fill-opacity="1" transform="matrix(1 0 0 1.00171 2397 396)"/></g></g></g></g></g></svg>