<svg viewBox="0 0 926 903" width="926" height="903" xmlns="http://www.w3.org/2000/svg" xmlns:xlink="http://www.w3.org/1999/xlink" xml:space="preserve" overflow="hidden"><g transform="translate(-2099 -788)"><g><path d="M2107 939.336C2107 859.622 2171.62 795 2251.34 795L2828.66 795C2908.38 795 2973 859.622 2973 939.336L2973 1535.66C2973 1615.38 2908.38 1680 2828.66 1680L2251.34 1680C2171.62 1680 2107 1615.38 2107 1535.66Z" stroke="#0098D5" stroke-width="10.3125" stroke-linecap="butt" stroke-linejoin="miter" stroke-miterlimit="8" stroke-opacity="1" fill="#0098D5" fill-rule="evenodd" fill-opacity="1"/><text fill="#FFFFFF" fill-opacity="1" font-family="Inter,Inter_MSFontService,sans-serif" font-style="normal" font-variant="normal" font-weight="700" font-stretch="normal" font-size="110" text-anchor="start" direction="ltr" writing-mode="lr-tb" unicode-bidi="normal" text-decoration="none" transform="matrix(1 0 0 1 2303.84 1466)">Klassen </text><text fill="#FFFFFF" fill-opacity="1" font-family="Inter,Inter_MSFontService,sans-serif" font-style="normal" font-variant="normal" font-weight="700" font-stretch="normal" font-size="110" text-anchor="start" direction="ltr" writing-mode="lr-tb" unicode-bidi="normal" text-decoration="none" transform="matrix(1 0 0 1 2759.88 1466)">-</text><text fill="#FFFFFF" fill-opacity="1" font-family="Inter,Inter_MSFontService,sans-serif" font-style="normal" font-variant="normal" font-weight="700" font-stretch="normal" font-size="110" text-anchor="start" direction="ltr" writing-mode="lr-tb" unicode-bidi="normal" text-decoration="none" transform="matrix(1 0 0 1 2186.39 1598)">wiederholung</text><text fill="#FFFFFF" fill-opacity="1" font-family="Inter,Inter_MSFontService,sans-serif" font-style="normal" font-variant="normal" font-weight="700" font-stretch="normal" font-size="110" text-anchor="start" direction="ltr" writing-mode="lr-tb" unicode-bidi="normal" text-decoration="none" transform="matrix(1 0 0 1 2928.89 1598)"> </text><g><g><g><path d="M2337.61 955.882 2373.97 919.517 2342.35 887.894 2252 978.242 2342.35 1068.59 2373.97 1036.97 2337.61 1000.6 2760.66 1000.6 2760.66 1097.5 2805.38 1097.5 2805.38 955.882Z" fill="#FFFFFF" fill-rule="nonzero" fill-opacity="1"/><path d="M2746.65 1126.41 2715.03 1158.03 2751.39 1194.4 2328.34 1194.4 2328.34 1097.5 2283.62 1097.5 2283.62 1239.12 2751.39 1239.12 2715.03 1275.48 2746.65 1307.11 2837 1216.76Z" fill="#FFFFFF" fill-rule="nonzero" fill-opacity="1"/><path d="M2746.65 1126.41 2715.03 1158.03 2751.39 1194.4 2544.5 1194.4 2544.5 1239.12 2751.39 1239.12 2715.03 1275.48 2746.65 1307.11 2837 1216.76Z" fill="#FFFFFF" fill-rule="nonzero" fill-opacity="1"/><path d="M2544.5 955.882 2544.5 1000.6 2760.66 1000.6 2760.66 1097.5 2805.38 1097.5 2805.38 955.882Z" fill="#FFFFFF" fill-rule="nonzero" fill-opacity="1"/><path d="M2760.65 955.878 2805.37 955.878 2805.37 1097.5 2760.65 1097.5Z" fill="#FFFFFF" fill-rule="nonzero" fill-opacity="1"/><path d="M2283.62 1096.6 2328.34 1096.6 2328.34 1238.22 2283.62 1238.22Z" fill="#FFFFFF" fill-rule="nonzero" fill-opacity="1"/></g></g></g></g></g></svg>